<svg xmlns="http://www.w3.org/2000/svg" viewBox="0 0 21.14 16"><defs><style>.cls-1{fill:#00ae37;}</style></defs><title>Recurso 1</title><g id="Capa_2" data-name="Capa 2"><g id="Modo_de_aislamiento" data-name="Modo de aislamiento"><rect class="cls-1" x="1.05" y="12.2" width="2.49" height="1.35"/><path class="cls-1" d="M20.6,2.32H13.87l0-1.64A.69.69,0,0,0,13.15,0H.78A.79.79,0,0,0,0,.72V12.89a.76.76,0,0,0,.78.67H2a.73.73,0,0,0,.57-.29,3.16,3.16,0,0,0,6.19.38h3.76a3.17,3.17,0,0,0,6.14-.08h1.85a.61.61,0,0,0,.61-.67V3.06C21.14,2.45,20.85,2.32,20.6,2.32Zm-5,8.8a1.76,1.76,0,1,1-1.78,1.76A1.77,1.77,0,0,1,15.6,11.12Zm4.24-7.3V7.34H17.53V3.82ZM15.6,9.76a3.19,3.19,0,0,0-1.76.53V3.82h2.31V8a.68.68,0,0,0,.69.68h3v3.48H18.68A3.15,3.15,0,0,0,15.6,9.76ZM2,12.19H1.47l0-10.73H12.38V12.12H8.78a3.16,3.16,0,0,0-6.19.36A.73.73,0,0,0,2,12.19Zm3.7,2.44A1.76,1.76,0,1,1,7.5,12.88,1.77,1.77,0,0,1,5.72,14.63Z"/></g></g></svg>